# Blender v2.76 (sub 0) OBJ File: 'T0.blend'
# www.blender.org 
mtllib Terrain.mtl
o Terrain
v 340.110992 18.777040 -294.587769
v -260.056335 43.051559 -293.637726
v 340.000000 0.000000 305.000000
v -260.000244 15.861747 305.000305
v 40.000000 1.442112 305.000000
v -260.868713 39.783165 5.264537
v 40.000000 0.133953 5.000000
v -110.000000 9.790160 -295.000000
v 190.082230 9.002213 305.022522
v -259.670380 16.293615 154.980652
v 189.916367 6.429028 -294.395050
v -110.087578 9.758508 305.021332
v -260.000122 0.218664 -145.000122
v 40.013283 2.942336 155.016266
v 190.002609 4.316786 155.001587
v -110.000000 0.000000 -145.000000
v 190.000671 3.598780 -145.000595
v -184.931992 29.111427 -294.501953
v 340.006927 2.194992 -219.972855
v 265.000061 0.201564 305.000122
v -259.793152 16.454714 230.421982
v 115.000000 9.756886 -295.000000
v 340.000000 0.000000 80.000000
v -35.000000 1.463356 305.000000
v -260.776794 35.001312 -70.872490
v 40.012451 3.881686 -219.834717
v 39.994289 2.208520 80.010254
v -185.009369 15.394888 4.998024
v 340.000000 0.000000 -70.000000
v 115.097084 11.354604 305.023621
v -259.377258 45.302227 80.342606
v 265.085632 28.062786 -293.700317
v 340.000000 0.000000 230.000000
v -185.092026 43.093170 305.024536
v -259.684052 32.175457 -218.081223
v 265.753418 19.904987 5.229878
v 190.007568 5.919742 79.998535
v 189.878326 8.600647 230.283325
v 115.000000 3.321207 155.000000
v 264.718872 13.475569 154.978104
v -110.004631 0.416367 230.001114
v -185.002533 3.357496 155.000061
v -35.008942 2.443927 155.010925
v -110.000000 0.001361 -220.000000
v -185.000534 0.875390 -145.000488
v 189.762878 6.204073 -218.422394
v 265.000061 0.117677 -145.000061
v 265.589752 14.478812 -70.663399
v 114.999977 0.004611 -219.999710
v -35.000004 2.329697 -70.000000
v -185.010635 16.509537 -70.005135
v -184.798248 12.094557 -218.616547
v -184.908218 21.924034 230.222214
v -185.005951 9.678772 79.998871
v 264.828308 12.943409 230.349289
v 115.005783 0.538362 230.001404
v 264.364502 28.128561 80.350014
v -34.998013 1.012192 80.002831
v -35.017113 5.336021 -219.772781
v 264.721100 15.631069 -218.270584
v 39.998039 0.451565 42.505909
v 190.008133 6.477158 42.498482
v 77.500000 0.000000 155.000000
v -110.000000 0.000000 192.500000
v -72.500000 0.000210 155.000000
v -109.999588 0.387467 -107.501213
v 190.005753 5.258473 -107.504105
v 40.013092 1.907238 117.501312
v 152.501038 1.698590 4.999771
v 40.000000 0.000000 -32.500000
v -110.000000 0.134594 117.500000
v 152.500015 0.028213 -145.000015
v 115.000000 -1.070639 -32.500000
v 2.500000 1.146000 -70.000000
v -72.500000 0.000000 230.000000
v 115.000000 0.000000 192.500000
v 77.500031 0.002661 230.000000
v -35.009296 2.176772 117.508492
v -72.500000 0.000000 80.000000
v 2.500000 1.224556 80.000000
v 77.500000 0.000000 42.500000
v 152.500702 1.107964 -107.500565
v 39.991932 2.344989 23.774340
v 58.750000 0.413124 5.000000
v 39.999443 1.010778 98.750893
v 40.000156 -1.062832 -51.249844
v -35.000000 0.000000 -51.250000
v -16.250000 0.357989 -70.000000
v 114.990295 1.701673 173.757416
v 58.747665 0.666669 80.006424
v -34.996876 1.961061 98.756775
v -16.250000 0.000000 80.000000
v 39.999805 0.663965 61.250587
v 40.003223 0.388016 -88.751717
v 96.250000 0.000000 155.000000
v -53.762951 2.810658 155.015839
v 40.002956 0.572991 136.251892
v 171.255219 3.156104 4.998875
v 21.250010 0.418200 155.000015
v 115.000000 0.000000 -13.750000
v -35.001133 0.619301 -88.750626
v -53.750000 0.000000 -70.000000
v 21.250000 1.224639 -70.000000
v -34.989235 2.515712 211.245316
v 115.000000 1.262798 136.250000
v -35.001122 0.712201 136.251236
v -53.743824 1.792521 80.015915
v 21.250000 0.000000 80.000000
v 2.500000 -1.070639 98.750000
v -16.249884 0.036182 117.500351
v 21.247442 0.752948 117.507271
v 58.750015 0.000726 117.500000
v 58.749763 1.847910 42.500721
v 2.500000 -1.070639 -51.250000
v -72.500000 0.000000 -51.250000
v 133.750076 0.107865 -32.500011
v 58.750652 1.296787 -32.498039
v -16.253752 0.170554 -107.514832
v 21.253805 0.107325 -107.506393
v 2.500000 0.000000 173.750000
v 2.500000 -0.024540 61.250000
v -16.238045 1.063482 211.247849
v 21.250038 4.034389 -88.750046
v -16.250008 4.605793 -88.750008
v 133.750076 0.118739 -88.750061
v 58.750000 0.037367 -51.250000
v -16.250000 0.000000 -51.250000
v 58.749992 0.011679 61.250027
v 58.750000 1.227790 23.750000
v -53.749329 0.673333 61.252022
v -53.752541 0.500123 136.252991
v 96.250000 0.000000 173.750000
v -53.760178 2.684593 -51.239822
v 21.250000 0.000000 23.750000
vt 0.468959 0.531255
vt 0.468959 0.500045
vt 0.500169 0.500045
vt 0.874689 0.749724
vt 0.999529 0.749724
vt 0.999529 0.874564
vt 0.000810 0.125525
vt 0.125650 0.000685
vt 0.125650 0.125525
vt 0.250489 0.250365
vt 0.125650 0.250365
vt 0.250489 0.125525
vt 0.593799 0.624884
vt 0.625009 0.624885
vt 0.625009 0.656094
vt 0.125650 0.437625
vt 0.000810 0.375205
vt 0.125650 0.375205
vt 0.625009 0.874564
vt 0.749849 0.874564
vt 0.749849 0.999404
vt 0.500169 0.999404
vt 0.500169 0.874564
vt 0.749849 0.749724
vt 0.874689 0.874564
vt 0.000810 0.624884
vt 0.125650 0.687304
vt 0.000810 0.749724
vt 0.000810 0.874564
vt 0.125650 0.874564
vt 0.125650 0.999404
vt 0.125650 0.749724
vt 0.375329 0.999404
vt 0.375329 0.874564
vt 0.312909 0.749724
vt 0.749849 0.125525
vt 0.749849 0.250365
vt 0.687429 0.250365
vt 0.000810 0.000685
vt 0.219279 0.375205
vt 0.250489 0.375205
vt 0.250489 0.406415
vt 0.000810 0.500045
vt 0.000810 0.250365
vt 0.375329 0.125525
vt 0.375329 0.250365
vt 0.344119 0.500045
vt 0.375329 0.500045
vt 0.375329 0.531255
vt 0.874689 0.125525
vt 0.999529 0.125525
vt 0.999529 0.250365
vt 0.344119 0.562465
vt 0.375329 0.562465
vt 0.375329 0.593674
vt 0.281699 0.500045
vt 0.312909 0.500045
vt 0.312909 0.531255
vt 0.344119 0.624884
vt 0.375329 0.656094
vt 0.375329 0.687305
vt 0.562589 0.375205
vt 0.593799 0.468835
vt 0.562589 0.468835
vt 0.406539 0.500045
vt 0.406539 0.562465
vt 0.656219 0.624885
vt 0.656219 0.593675
vt 0.687429 0.593675
vt 0.625009 0.593675
vt 0.437749 0.500045
vt 0.437749 0.468835
vt 0.562589 0.500045
vt 0.375329 0.468835
vt 0.312909 0.468835
vt 0.281699 0.375205
vt 0.874689 0.000685
vt 0.999529 0.000685
vt 0.874689 0.375205
vt 0.999529 0.375205
vt 0.250489 0.531255
vt 0.250489 0.656094
vt 0.437749 0.437625
vt 0.468959 0.468835
vt 0.250489 0.500045
vt 0.250489 0.437625
vt 0.406539 0.656094
vt 0.250489 0.687304
vt 0.281699 0.656094
vt 0.500169 0.125525
vt 0.375329 0.000685
vt 0.625009 0.000685
vt 0.593799 0.687305
vt 0.593799 0.656094
vt 0.500169 0.281575
vt 0.687429 0.749724
vt 0.625009 0.125525
vt 0.562589 0.343995
vt 0.500169 0.312785
vt 0.687429 0.312785
vt 0.625009 0.999404
vt 0.999529 0.999404
vt 0.874689 0.999404
vt 0.250489 0.999404
vt 0.000810 0.999404
vt 0.593799 0.500045
vt 0.625009 0.531255
vt 0.593799 0.562465
vt 0.219279 0.406415
vt 0.437749 0.250365
vt 0.874689 0.624885
vt 0.188069 0.749724
vt 0.406539 0.468835
vt 0.656219 0.531255
vt 0.656219 0.500045
vt 0.687429 0.531255
vt 0.312909 0.593674
vt 0.375329 0.624884
vt 0.250489 0.874564
vt 0.250489 0.624884
vt 0.156860 0.624884
vt 0.156860 0.593674
vt 0.656219 0.343995
vt 0.625009 0.562465
vt 0.188070 0.375205
vt 0.531379 0.375205
vt 0.874689 0.250365
vt 0.281699 0.624884
vt 0.312909 0.624884
vt 0.219279 0.562465
vt 0.749849 0.312785
vt 0.874689 0.500045
vt 0.500169 0.468835
vt 0.593799 0.593675
vn -0.032500 0.999400 -0.006700
vn -0.049000 0.998500 -0.024800
vn -0.021100 0.999000 -0.038800
vn 0.056000 0.995500 0.076100
vn 0.110800 0.987500 0.111800
vn 0.211900 0.961800 0.173400
vn 0.100900 0.987000 0.125300
vn 0.130000 0.990500 0.043500
vn 0.077500 0.994800 0.065400
vn -0.089600 0.995800 -0.016700
vn -0.069300 0.996900 -0.037200
vn 0.037400 0.998200 0.046300
vn 0.048100 0.998700 0.018900
vn -0.009300 0.999800 0.016200
vn -0.032600 0.999200 -0.023800
vn 0.002700 0.999300 -0.036000
vn -0.066700 0.993900 -0.087900
vn -0.060300 0.995100 -0.078300
vn 0.188100 0.974900 -0.118700
vn 0.053100 0.998400 0.020800
vn 0.054200 0.997500 0.044500
vn 0.288400 0.956200 -0.050300
vn 0.262100 0.964900 0.012500
vn 0.011900 0.999600 0.023100
vn 0.189900 0.968200 0.162600
vn 0.034900 0.999100 -0.024900
vn -0.015700 0.999500 -0.027100
vn 0.212400 0.967200 -0.139000
vn 0.093400 0.974900 -0.202000
vn 0.131300 0.972700 -0.191300
vn -0.143700 0.987200 -0.068300
vn 0.143700 0.987400 -0.066300
vn 0.393300 0.905800 0.157600
vn 0.228500 0.967000 0.112400
vn 0.045600 0.998700 0.019000
vn 0.053800 0.998300 0.020700
vn 0.112800 0.993000 0.035000
vn -0.189900 0.980200 -0.056500
vn 0.002700 1.000000 0.000000
vn -0.062200 0.995000 0.077500
vn -0.093700 0.995500 -0.011500
vn -0.063400 0.998000 0.005500
vn -0.042300 0.998600 -0.031000
vn 0.030300 0.998800 0.038400
vn 0.040300 0.997900 0.051000
vn -0.235100 0.971100 0.040000
vn 0.001100 1.000000 0.003400
vn -0.017500 0.999800 -0.009100
vn -0.031400 0.999500 0.003900
vn 0.020400 0.988400 0.150500
vn -0.074800 0.984000 0.161800
vn -0.110600 0.991100 0.073400
vn -0.008900 0.999700 0.023300
vn 0.000000 0.999600 0.027500
vn 0.012100 0.999900 0.004600
vn 0.006200 0.999800 -0.019900
vn 0.019900 0.999700 0.011600
vn -0.068700 0.997600 0.002300
vn 0.056300 0.998100 -0.025800
vn -0.043900 0.999000 -0.003700
vn -0.029900 0.999500 -0.000700
vn -0.012600 0.999600 -0.025600
vn -0.006100 0.999900 -0.011300
vn -0.018800 0.999500 -0.025800
vn 0.001700 0.999600 -0.028400
vn 0.000200 0.999900 -0.012500
vn -0.054900 0.998100 -0.025800
vn -0.102400 0.994700 -0.011600
vn -0.025500 0.997400 -0.067700
vn -0.020700 0.995300 0.094500
vn -0.045500 0.997900 0.044900
vn 0.028700 0.998400 0.048900
vn -0.037900 0.999000 -0.022700
vn 0.024700 0.999600 -0.009400
vn 0.022900 0.999700 0.010900
vn -0.045700 0.998400 -0.031800
vn 0.129700 0.978200 0.162200
vn 0.149800 0.970700 0.188000
vn 0.000500 0.998100 0.061800
vn 0.034300 0.992600 0.116100
vn -0.068400 0.997500 -0.017000
vn -0.064500 0.996100 -0.059700
vn 0.021300 0.999800 0.000200
vn 0.073200 0.996100 -0.048700
vn -0.029000 0.997800 -0.059200
vn 0.027400 0.999500 -0.010300
vn -0.013700 0.999800 -0.017000
vn -0.058200 0.998200 -0.011000
vn -0.023700 0.998800 -0.042100
vn 0.039400 0.997400 -0.060200
vn 0.283000 0.958900 0.021200
vn 0.158300 0.985400 -0.061600
vn -0.046300 0.998800 -0.012500
vn -0.000100 0.998100 -0.061600
vn -0.115900 0.993200 -0.011600
vn 0.055500 0.997900 -0.032200
vn 0.043900 0.993000 -0.109500
vn -0.060600 0.998000 -0.014300
vn -0.059200 0.998100 -0.013700
vn -0.104700 0.994400 -0.011300
vn 0.233000 0.943800 -0.234300
vn 0.182200 0.973300 0.139200
vn 0.174900 0.958300 0.225800
vn 0.181800 0.982000 0.051500
vn -0.341600 0.939800 0.006500
vn -0.036500 0.997900 0.053700
vn 0.026700 0.993700 0.108200
vn 0.026900 0.998600 0.046000
vn -0.033900 0.999400 0.011300
vn -0.214100 0.976800 -0.007200
vn -0.010300 0.998800 0.047400
vn 0.083000 0.995800 -0.038400
vn 0.003200 1.000000 0.001200
vn 0.097700 0.994800 -0.027900
vn 0.055000 0.998400 -0.011400
vn 0.030600 0.997500 -0.064100
vn 0.066700 0.997700 -0.000600
vn 0.056500 0.997100 -0.050800
vn 0.135300 0.988600 -0.065800
vn 0.158900 0.985000 -0.066900
vn 0.031600 0.999500 0.007400
vn 0.047600 0.998800 -0.006700
vn -0.026400 0.999600 0.001400
vn -0.001200 0.990900 0.134600
vn -0.046800 0.998800 0.014500
vn -0.012500 0.999500 -0.026700
vn -0.104200 0.994400 0.017500
vn 0.020200 0.999700 -0.013600
vn 0.000200 0.999000 0.044300
vn 0.003300 0.999900 -0.010200
vn -0.108800 0.994000 -0.007800
vn 0.026600 0.997700 0.062500
vn 0.001700 1.000000 -0.006800
vn 0.011900 0.999800 0.016900
usemtl Terrain
s 1
f 134/1/1 83/2/2 7/3/3
f 44/4/4 8/5/5 18/6/6
f 20/7/7 33/8/8 55/9/9
f 15/10/10 38/11/11 40/12/12
f 87/13/13 50/14/14 102/15/15
f 77/16/16 30/17/17 56/18/18
f 51/19/19 45/20/20 13/21/21
f 6/22/22 28/23/23 51/19/19
f 16/24/24 44/4/4 52/25/25
f 24/26/26 75/27/27 12/28/28
f 34/29/29 53/30/30 21/31/31
f 12/28/28 41/32/32 53/30/30
f 31/33/33 54/34/34 28/23/23
f 71/35/35 28/23/23 54/34/34
f 47/36/36 17/37/37 67/38/38
f 20/7/7 3/39/39 33/8/8
f 89/40/40 39/41/41 95/42/42
f 30/17/17 77/16/16 5/43/43
f 30/17/17 9/44/44 38/11/11
f 40/12/12 57/45/45 37/46/46
f 85/47/47 27/48/48 108/49/49
f 60/50/50 32/51/51 11/52/52
f 17/37/37 47/36/36 60/50/50
f 109/53/53 80/54/54 92/55/55
f 97/56/56 68/57/57 111/58/58
f 91/59/59 107/60/60 79/61/61
f 73/62/62 126/63/63 117/64/64
f 108/49/49 27/48/48 93/65/65
f 92/55/55 80/54/54 121/66/66
f 111/58/58 108/49/49 109/53/53
f 101/67/67 124/68/68 118/69/69
f 88/70/70 124/68/68 101/67/67
f 83/2/2 61/71/71 113/72/72
f 70/73/73 117/64/64 126/63/63
f 90/74/74 112/75/75 105/76/76
f 19/77/77 1/78/78 60/50/50
f 49/79/79 11/52/52 22/80/80
f 102/15/15 50/14/14 101/67/67
f 111/58/58 99/81/81 97/56/56
f 75/27/27 24/26/26 96/82/82
f 81/83/83 129/84/84 113/72/72
f 95/42/42 39/41/41 105/76/76
f 14/85/85 63/86/86 97/56/56
f 79/61/61 107/60/60 130/87/87
f 65/88/88 96/82/82 131/89/89
f 99/81/81 14/85/85 97/56/56
f 36/90/90 23/91/91 29/92/92
f 115/93/93 133/94/94 102/15/15
f 33/8/8 23/91/91 40/12/12
f 98/95/95 15/10/10 37/46/46
f 12/28/28 75/27/27 41/32/32
f 14/85/85 99/81/81 5/43/43
f 57/45/45 23/91/91 36/90/90
f 52/25/25 44/4/4 18/6/6
f 45/20/20 51/19/19 66/96/96
f 48/97/97 29/92/92 47/36/36
f 48/97/97 47/36/36 67/38/38
f 116/98/98 69/99/99 82/100/100
f 133/94/94 87/13/13 102/15/15
f 25/101/101 51/19/19 13/21/21
f 25/101/101 6/22/22 51/19/19
f 2/102/102 35/103/103 18/6/6
f 13/21/21 45/20/20 35/103/103
f 45/20/20 16/24/24 52/25/25
f 21/31/31 53/30/30 10/104/104
f 4/105/105 34/29/29 21/31/31
f 34/29/29 12/28/28 53/30/30
f 6/22/22 31/33/33 28/23/23
f 31/33/33 10/104/104 54/34/34
f 86/106/106 103/107/107 114/108/108
f 132/109/109 89/40/40 95/42/42
f 56/18/18 30/17/17 38/11/11
f 57/45/45 36/90/90 62/110/110
f 57/45/45 40/12/12 23/91/91
f 44/4/4 59/111/111 8/5/5
f 64/112/112 53/30/30 41/32/32
f 105/76/76 39/41/41 15/10/10
f 113/72/72 128/113/113 81/83/83
f 123/114/114 94/115/115 119/116/116
f 110/117/117 58/118/118 91/59/59
f 53/30/30 64/112/112 42/119/119
f 43/120/120 104/121/121 122/122/122
f 73/62/62 116/98/98 125/123/123
f 123/114/114 103/107/107 94/115/115
f 50/14/14 88/70/70 101/67/67
f 88/70/70 74/124/124 124/68/68
f 89/40/40 76/125/125 15/10/10
f 73/62/62 100/126/126 116/98/98
f 46/127/127 98/95/95 17/37/37
f 50/14/14 87/13/13 88/70/70
f 118/69/69 124/68/68 123/114/114
f 43/120/120 106/128/128 131/89/89
f 77/16/16 63/86/86 14/85/85
f 27/48/48 90/74/74 93/65/65
f 83/2/2 129/84/84 7/3/3
f 68/57/57 97/56/56 112/75/75
f 52/25/25 18/6/6 35/103/103
f 68/57/57 112/75/75 85/47/47
f 78/129/129 106/128/128 110/117/117
f 121/66/66 130/87/87 92/55/55
f 80/54/54 109/53/53 108/49/49
f 29/92/92 19/77/77 47/36/36
f 115/93/93 130/87/87 133/94/94
f 9/44/44 20/7/7 55/9/9
f 15/10/10 76/125/125 38/11/11
f 40/12/12 37/46/46 15/10/10
f 9/44/44 55/9/9 38/11/11
f 76/125/125 56/18/18 38/11/11
f 38/11/11 55/9/9 40/12/12
f 10/104/104 42/119/119 54/34/34
f 71/35/35 66/96/96 28/23/23
f 51/19/19 28/23/23 66/96/96
f 54/34/34 42/119/119 71/35/35
f 79/61/61 106/128/128 78/129/129
f 78/129/129 91/59/59 79/61/61
f 100/126/126 73/62/62 117/64/64
f 120/130/130 99/81/81 109/53/53
f 111/58/58 68/57/57 85/47/47
f 85/47/47 108/49/49 111/58/58
f 109/53/53 99/81/81 111/58/58
f 128/113/113 113/72/72 61/71/71
f 83/2/2 134/1/1 61/71/71
f 86/106/106 70/73/73 126/63/63
f 71/35/35 42/119/119 64/112/112
f 16/24/24 45/20/20 66/96/96
f 71/35/35 64/112/112 65/88/88
f 44/4/4 16/24/24 59/111/111
f 64/112/112 41/32/32 75/27/27
f 59/111/111 16/24/24 118/69/69
f 66/96/96 71/35/35 115/93/93
f 131/89/89 106/128/128 79/61/61
f 64/112/112 75/27/27 65/88/88
f 65/88/88 131/89/89 71/35/35
f 79/61/61 130/87/87 115/93/93
f 115/93/93 102/15/15 66/96/96
f 94/115/115 103/107/107 126/63/63
f 102/15/15 101/67/67 66/96/96
f 94/115/115 126/63/63 125/123/123
f 131/89/89 79/61/61 71/35/35
f 119/116/116 94/115/115 72/131/131
f 71/35/35 79/61/61 115/93/93
f 94/115/115 125/123/123 72/131/131
f 66/96/96 101/67/67 16/24/24
f 118/69/69 119/116/116 59/111/111
f 69/99/99 116/98/98 100/126/126
f 16/24/24 101/67/67 118/69/69
f 69/99/99 100/126/126 81/83/83
f 59/111/111 119/116/116 26/132/132
f 100/126/126 117/64/64 84/133/133
f 8/5/5 59/111/111 26/132/132
f 70/73/73 86/106/106 114/108/108
f 26/132/132 22/80/80 8/5/5
f 70/73/73 114/108/108 7/3/3
f 26/132/132 119/116/116 49/79/79
f 114/108/108 134/1/1 7/3/3
f 49/79/79 119/116/116 72/131/131
f 70/73/73 7/3/3 84/133/133
f 72/131/131 125/123/123 82/100/100
f 7/3/3 129/84/84 84/133/133
f 46/127/127 72/131/131 82/100/100
f 117/64/64 70/73/73 84/133/133
f 46/127/127 82/100/100 98/95/95
f 105/76/76 15/10/10 98/95/95
f 98/95/95 82/100/100 69/99/99
f 100/126/126 84/133/133 81/83/83
f 128/113/113 61/71/71 93/65/65
f 69/99/99 81/83/83 105/76/76
f 105/76/76 98/95/95 69/99/99
f 56/18/18 76/125/125 77/16/16
f 95/42/42 112/75/75 63/86/86
f 77/16/16 76/125/125 132/109/109
f 105/76/76 81/83/83 90/74/74
f 77/16/16 132/109/109 63/86/86
f 112/75/75 97/56/56 63/86/86
f 63/86/86 132/109/109 95/42/42
f 128/113/113 93/65/65 90/74/74
f 95/42/42 105/76/76 112/75/75
f 27/48/48 85/47/47 90/74/74
f 81/83/83 128/113/113 90/74/74
f 85/47/47 112/75/75 90/74/74
f 32/51/51 60/50/50 1/78/78
f 47/36/36 19/77/77 60/50/50
f 26/132/132 49/79/79 22/80/80
f 65/88/88 75/27/27 96/82/82
f 83/2/2 113/72/72 129/84/84
f 81/83/83 84/133/133 129/84/84
f 48/97/97 36/90/90 29/92/92
f 55/9/9 33/8/8 40/12/12
f 62/110/110 98/95/95 37/46/46
f 37/46/46 57/45/45 62/110/110
f 125/123/123 116/98/98 82/100/100
f 127/134/134 114/108/108 74/124/124
f 86/106/106 126/63/63 103/107/107
f 103/107/107 123/114/114 74/124/124
f 74/124/124 114/108/108 103/107/107
f 123/114/114 124/68/68 74/124/124
f 78/129/129 110/117/117 91/59/59
f 10/104/104 53/30/30 42/119/119
f 106/128/128 43/120/120 122/122/122
f 126/63/63 73/62/62 125/123/123
f 15/10/10 39/41/41 89/40/40
f 89/40/40 132/109/109 76/125/125
f 98/95/95 62/110/110 36/90/90
f 49/79/79 72/131/131 46/127/127
f 98/95/95 36/90/90 48/97/97
f 11/52/52 49/79/79 46/127/127
f 98/95/95 48/97/97 67/38/38
f 60/50/50 11/52/52 46/127/127
f 98/95/95 67/38/38 17/37/37
f 17/37/37 60/50/50 46/127/127
f 119/116/116 118/69/69 123/114/114
f 96/82/82 43/120/120 131/89/89
f 5/43/43 77/16/16 14/85/85
f 45/20/20 52/25/25 35/103/103
f 104/121/121 43/120/120 96/82/82
f 110/117/117 106/128/128 120/130/130
f 104/121/121 96/82/82 24/26/26
f 107/60/60 91/59/59 58/118/118
f 122/122/122 104/121/121 24/26/26
f 130/87/87 107/60/60 58/118/118
f 122/122/122 24/26/26 5/43/43
f 133/94/94 130/87/87 87/13/13
f 106/128/128 122/122/122 120/130/130
f 130/87/87 134/1/1 87/13/13
f 74/124/124 88/70/70 127/134/134
f 130/87/87 121/66/66 134/1/1
f 5/43/43 99/81/81 120/130/130
f 127/134/134 88/70/70 87/13/13
f 122/122/122 5/43/43 120/130/130
f 127/134/134 87/13/13 134/1/1
f 134/1/1 114/108/108 127/134/134
f 93/65/65 61/71/71 121/66/66
f 80/54/54 108/49/49 121/66/66
f 120/130/130 109/53/53 110/117/117
f 121/66/66 108/49/49 93/65/65
f 110/117/117 109/53/53 92/55/55
f 121/66/66 61/71/71 134/1/1
f 58/118/118 110/117/117 92/55/55
f 92/55/55 130/87/87 58/118/118
