# ProBuilder 4.3.1
# https://unity3d.com/unity/features/worldbuilding/probuilder
# 12/14/2021 12:48:24 PM

mtllib ./floor.mtl
o floor

g Cube (42)
v 0 0 0
v -20 0 0
v 0 5 0
v -20 5 0
v -20 0 -20
v -20 5 -20
v 0 0 -20
v 0 5 -20

vt 0 0
vt 20 0
vt 0 5
vt 20 5
vt -20 0
vt -20 5
vt 0 -20
vt 20 -20

vn 0 0 -1
vn 1 0 0
vn 0 0 1
vn -1 0 0
vn 0 1 0

usemtl Dev_matte_grey50
f 1/1/1 2/2/1 4/4/1 3/3/1
f 2/1/2 5/2/2 6/4/2 4/3/2
f 5/5/3 7/1/3 8/3/3 6/6/3
f 7/5/4 1/1/4 3/3/4 8/6/4

usemtl Dev_matte_grey50
f 7/7/5 5/8/5 2/2/5 1/1/5

