# ProBuilder 4.3.1
# https://unity3d.com/unity/features/worldbuilding/probuilder
# 12/14/2021 12:52:29 PM

mtllib ./sky.mtl
o sky

g Cube (41)
v 3.500001 5.587935E-08 3.75
v -22 5.587935E-08 3.75
v 3.500001 7 3.75
v -22 7 3.75
v -22 5.587935E-08 -22.75
v -22 7 -22.75
v 3.500001 5.587935E-08 -22.75
v 3.500001 7 -22.75

vt -3.500001 5.587935E-08
vt 22 5.587935E-08
vt -3.500001 7
vt 22 7
vt -3.75 5.587935E-08
vt 22.75 5.587935E-08
vt -3.75 7
vt 22.75 7
vt -22 5.587935E-08
vt 3.500001 5.587935E-08
vt -22 7
vt 3.500001 7
vt -22.75 5.587935E-08
vt 3.75 5.587935E-08
vt -22.75 7
vt 3.75 7
vt 3.500001 3.75
vt -22 3.75
vt 3.500001 -22.75
vt -22 -22.75
vt -3.500001 -22.75
vt 22 -22.75
vt -3.500001 3.75
vt 22 3.75

vn 0 0 -1
vn 1 0 0
vn 0 0 1
vn -1 0 0
vn 0 -1 0
vn 0 1 0

usemtl Dev_zone_skybox
f 1/1/1 2/2/1 4/4/1 3/3/1
f 2/5/2 5/6/2 6/8/2 4/7/2
f 5/9/3 7/10/3 8/12/3 6/11/3
f 7/13/4 1/14/4 3/16/4 8/15/4
f 3/17/5 4/18/5 6/20/5 8/19/5
f 7/21/6 5/22/6 2/24/6 1/23/6

